<svg xmlns="http://www.w3.org/2000/svg" viewBox="0 0 32 32" width="32" height="32">
  <defs>
    <!-- Gradient for the lens -->
    <radialGradient id="lensGradient" cx="50%" cy="50%" r="60%">
      <stop offset="0%" style="stop-color:#8B5CF6;stop-opacity:1" />
      <stop offset="70%" style="stop-color:#A855F7;stop-opacity:1" />
      <stop offset="100%" style="stop-color:#7C3AED;stop-opacity:1" />
    </radialGradient>
    
    <!-- Gradient for the outer ring -->
    <linearGradient id="ringGradient" x1="0%" y1="0%" x2="100%" y2="100%">
      <stop offset="0%" style="stop-color:#EC4899;stop-opacity:1" />
      <stop offset="50%" style="stop-color:#F97316;stop-opacity:1" />
      <stop offset="100%" style="stop-color:#EAB308;stop-opacity:1" />
    </linearGradient>
    
    <!-- Shadow filter -->
    <filter id="shadow" x="-50%" y="-50%" width="200%" height="200%">
      <feDropShadow dx="0" dy="1" stdDeviation="1" flood-color="#000000" flood-opacity="0.3"/>
    </filter>
  </defs>
  
  <!-- Background circle -->
  <circle cx="16" cy="16" r="15" fill="url(#ringGradient)" filter="url(#shadow)"/>
  
  <!-- Camera body -->
  <rect x="6" y="10" width="20" height="14" rx="2" fill="#1F2937" opacity="0.8"/>
  
  <!-- Main lens outer ring -->
  <circle cx="16" cy="16" r="9" fill="#374151" stroke="url(#ringGradient)" stroke-width="0.5"/>
  
  <!-- Lens glass -->
  <circle cx="16" cy="16" r="7.5" fill="url(#lensGradient)"/>
  
  <!-- Inner lens rings -->
  <circle cx="16" cy="16" r="6" fill="none" stroke="#FFFFFF" stroke-width="0.3" opacity="0.6"/>
  <circle cx="16" cy="16" r="4.5" fill="none" stroke="#FFFFFF" stroke-width="0.2" opacity="0.4"/>
  <circle cx="16" cy="16" r="3" fill="none" stroke="#FFFFFF" stroke-width="0.2" opacity="0.3"/>
  
  <!-- Lens center -->
  <circle cx="16" cy="16" r="1.5" fill="#1F2937" opacity="0.9"/>
  
  <!-- Aperture blades effect -->
  <g opacity="0.2">
    <path d="M16 12 L19 16 L16 20 L13 16 Z" fill="#FFFFFF"/>
    <path d="M12 16 L16 13 L20 16 L16 19 Z" fill="#FFFFFF"/>
  </g>
  
  <!-- Light reflection -->
  <ellipse cx="13" cy="13" rx="2" ry="3" fill="#FFFFFF" opacity="0.3" transform="rotate(-45 13 13)"/>
  
  <!-- Camera flash/viewfinder -->
  <rect x="8" y="8" width="2" height="1.5" rx="0.3" fill="#F59E0B"/>
  
  <!-- Shutter button -->
  <circle cx="22" cy="9" r="1.2" fill="#6B7280"/>
  <circle cx="22" cy="9" r="0.8" fill="#9CA3AF"/>
</svg>